<?xml version="1.0" standalone="no"?>
<!DOCTYPE svg PUBLIC "-//W3C//DTD SVG 20010904//EN"
 "http://www.w3.org/TR/2001/REC-SVG-20010904/DTD/svg10.dtd">
<svg version="1.0" xmlns="http://www.w3.org/2000/svg"
 width="1280.000000pt" height="1024.000000pt" viewBox="0 0 1280.000000 1024.000000"
 preserveAspectRatio="xMidYMid meet">
<metadata>
Created by potrace 1.16, written by Peter Selinger 2001-2019
</metadata>
<g transform="translate(0.000000,1024.000000) scale(0.100000,-0.100000)"
fill="#000000" stroke="none">
<path d="M4089 9687 c-120 -64 -146 -224 -52 -328 62 -68 70 -69 635 -69 l499
0 -7 -22 c-3 -13 -270 -824 -592 -1803 -397 -1207 -587 -1798 -590 -1836 -3
-43 1 -65 16 -96 27 -51 81 -99 129 -112 53 -15 5303 -15 5356 0 81 22 146
111 147 200 0 63 -40 139 -92 175 l-41 29 -2513 3 -2512 2 49 153 c27 83 65
203 85 265 l35 112 2033 0 c1332 0 2052 3 2087 10 61 12 107 40 136 84 28 42
723 2370 723 2421 -1 87 -69 172 -156 194 -30 8 -618 11 -1984 11 -1550 0
-1941 3 -1937 13 36 95 127 392 127 413 0 81 -45 154 -115 185 -38 17 -82 19
-731 19 l-691 0 -44 -23z m4985 -1244 c-35 -120 -159 -545 -276 -945 l-212
-728 -1899 0 c-1515 0 -1898 3 -1894 13 5 13 455 1380 557 1690 l61 187 1863
0 1864 0 -64 -217z"/>
<path d="M3285 8937 c-21 -12 -53 -42 -70 -65 -27 -39 -30 -52 -30 -117 0 -65
3 -78 30 -117 17 -23 49 -53 70 -65 l40 -23 617 0 c368 0 627 4 642 10 40 15
104 78 116 116 15 44 15 114 1 157 -13 39 -74 101 -114 116 -19 7 -235 11
-645 11 l-617 0 -40 -23z"/>
<path d="M3316 8265 c-142 -50 -181 -243 -70 -347 62 -58 63 -58 546 -58 407
0 446 2 483 19 72 32 125 113 125 190 0 81 -72 180 -146 200 -62 17 -888 14
-938 -4z"/>
<path d="M3292 7569 c-131 -66 -151 -253 -36 -347 57 -47 108 -54 364 -50 210
3 228 4 267 25 140 75 148 272 15 363 -35 25 -37 25 -301 28 -255 2 -268 2
-309 -19z"/>
<path d="M5565 5196 c-202 -39 -366 -162 -454 -341 -72 -146 -86 -330 -37
-482 52 -162 171 -300 321 -374 117 -57 189 -72 315 -66 175 8 305 64 424 183
118 119 176 248 184 411 8 162 -19 264 -105 395 -137 209 -402 321 -648 274z
m170 -417 c59 -15 129 -77 151 -134 79 -208 -176 -389 -342 -242 -150 131 -66
370 134 386 7 1 33 -4 57 -10z"/>
<path d="M7800 5204 c-98 -16 -145 -31 -219 -66 -160 -77 -293 -241 -337 -418
-21 -84 -21 -227 0 -309 45 -174 170 -331 326 -409 109 -54 182 -72 295 -72
253 0 472 142 580 375 42 90 55 154 55 267 0 177 -58 317 -185 443 -63 64 -98
89 -165 122 -47 22 -105 46 -130 51 -53 13 -184 22 -220 16z m115 -425 c54
-14 119 -68 146 -122 30 -58 24 -149 -14 -206 -74 -112 -225 -135 -323 -48
-71 62 -97 165 -62 248 22 51 84 107 137 124 58 17 63 17 116 4z"/>
<path d="M7245 3614 c-91 -10 -794 -37 -1130 -44 -375 -8 -394 -9 -481 -33
-253 -71 -562 -203 -1054 -448 l-355 -178 -485 -31 c-464 -29 -487 -32 -536
-55 -33 -16 -62 -40 -80 -67 -39 -55 -39 -57 -20 -972 16 -738 17 -761 37
-804 24 -49 82 -96 138 -112 235 -67 1370 -213 2091 -269 776 -61 1162 -75
1887 -68 697 7 708 8 844 79 58 30 235 169 735 579 363 297 687 568 720 603
107 111 164 257 164 421 0 232 -115 418 -320 519 -149 73 -286 92 -434 61
-107 -23 -174 -60 -406 -227 -793 -570 -787 -566 -842 -578 -53 -12 -54 -12
-418 99 -201 61 -380 117 -399 125 -30 11 -6 14 216 20 287 8 353 19 468 75
189 92 323 256 370 451 24 104 31 331 11 414 -39 166 -156 312 -307 384 -46
22 -108 45 -137 51 -48 10 -201 13 -277 5z m247 -454 c62 -42 72 -68 65 -184
-10 -167 -50 -242 -161 -296 l-63 -31 -764 -23 c-661 -19 -768 -25 -795 -39
-132 -69 -161 -241 -57 -339 19 -18 197 -95 533 -233 278 -113 514 -210 525
-215 11 -5 199 -64 419 -130 432 -130 447 -133 588 -106 89 17 185 53 257 95
30 18 260 180 510 360 251 181 467 334 481 341 44 24 125 16 177 -16 66 -41
96 -100 91 -177 -4 -48 -9 -63 -34 -87 -66 -64 -1342 -1096 -1378 -1114 -37
-19 -69 -20 -670 -24 -729 -5 -1086 10 -1911 79 -508 42 -1291 139 -1672 206
l-91 16 -6 111 c-11 206 -29 1077 -22 1083 4 4 193 19 421 33 l415 27 58 30
c31 16 140 73 241 127 379 198 764 374 983 447 l122 41 376 3 c313 2 994 26
1120 39 19 2 74 3 121 2 73 -1 91 -5 121 -26z"/>
</g>
</svg>
